<svg width="63" height="63" viewBox="0 0 63 63" fill="none" xmlns="http://www.w3.org/2000/svg">
<path d="M46.0215 7.0415H46.1383L46.1669 6.92825C46.6075 5.18471 47.6148 3.63693 49.0306 2.52809C50.4463 1.41932 52.1902 0.812252 53.9884 0.802222H54.0127C55.5285 0.802311 57.014 1.22699 58.3007 2.02813C59.5875 2.82926 60.6241 3.97482 61.2931 5.33498C61.9622 6.69513 62.2368 8.21549 62.0859 9.72374C61.9351 11.232 61.3647 12.6678 60.4396 13.8685C59.5144 15.0692 58.2714 15.9868 56.8515 16.5172C55.4315 17.0476 53.8914 17.1696 52.4056 16.8695C50.9198 16.5693 49.5479 15.859 48.4451 14.819C47.3424 13.779 46.5531 12.4509 46.1666 10.9852L46.1371 10.8735H46.0215H33.3033C32.7951 10.8735 32.3078 10.6716 31.9485 10.3123C31.5892 9.95298 31.3873 9.46564 31.3873 8.95749C31.3873 8.44934 31.5892 7.962 31.9485 7.60268C32.3078 7.24337 32.7951 7.0415 33.3033 7.0415H46.0215ZM51.5694 12.5841C52.2882 13.0537 53.1303 13.2991 53.9888 13.289C54.5552 13.289 55.1159 13.1765 55.6385 12.9583C56.1614 12.7399 56.6358 12.4199 57.0341 12.0168C57.4324 11.6137 57.7467 11.1356 57.9588 10.6101C58.1709 10.0849 58.2766 9.52291 58.2699 8.95659C58.2697 8.09802 58.0143 7.25889 57.5362 6.54574C57.0579 5.83235 56.3784 5.27725 55.5839 4.95096C54.7894 4.62468 53.9159 4.54195 53.0743 4.71329C52.2326 4.88463 51.461 5.3023 50.8573 5.91323C50.2536 6.52416 49.8452 7.30076 49.6839 8.14436C49.5226 8.98796 49.6157 9.86046 49.9515 10.651C50.2872 11.4415 50.8504 12.1144 51.5694 12.5841Z" fill="#060821" stroke="white" stroke-width="0.3"/>
<path d="M52.6913 37.0624C52.6911 36.2058 52.4365 35.3686 51.9596 34.6569C51.4827 33.945 50.8049 33.391 50.0124 33.0651C49.22 32.7391 48.3485 32.656 47.5087 32.8264C46.6689 32.9967 45.8987 33.4127 45.2958 34.0216C44.6929 34.6305 44.2846 35.4049 44.1227 36.2463C43.9607 37.0877 44.0524 37.9583 44.3862 38.7475C44.72 39.5367 45.2808 40.2089 45.9974 40.6788C46.7137 41.1485 47.5535 41.3948 48.4101 41.3865C48.9757 41.3864 49.5358 41.2743 50.0579 41.0565C50.5803 40.8386 51.0542 40.5194 51.4524 40.1172C51.8506 39.7151 52.1651 39.238 52.3777 38.7135C52.5903 38.1893 52.6969 37.6281 52.6913 37.0624ZM52.6913 37.0624C52.6913 37.0627 52.6913 37.0629 52.6913 37.0632L52.5413 37.0632L52.6913 37.0617C52.6913 37.0619 52.6913 37.0622 52.6913 37.0624ZM40.2363 36.048H40.3669L40.3849 35.9187C40.6548 33.9814 41.6154 32.2069 43.0899 30.9217C44.5644 29.6366 46.4535 28.9273 48.4094 28.9245C49.8861 28.9257 51.3344 29.3299 52.5983 30.0935C53.8623 30.8571 54.8939 31.9512 55.582 33.2579C56.27 34.5645 56.5884 36.0342 56.5029 37.5084C56.4173 38.9827 55.9311 40.4056 55.0965 41.6239C54.262 42.8422 53.1107 43.8097 51.7669 44.422C50.4231 45.0343 48.9377 45.2683 47.4707 45.0987C46.0038 44.9291 44.6109 44.3624 43.4423 43.4596C42.2736 42.5568 41.3735 41.3522 40.8389 39.9757L40.8018 39.88H40.6991H33.9226H33.9225C33.5587 39.8803 33.2025 39.7766 32.8957 39.5811C32.5889 39.3856 32.3444 39.1065 32.191 38.7767L32.1909 38.7764L23.3071 19.7693L23.2667 19.6829H23.1712H16.2295H16.1289L16.0907 19.776C15.3383 21.612 13.9424 23.1107 12.1644 23.9914C10.3864 24.8721 8.34827 25.0744 6.43183 24.5604C4.51538 24.0463 2.85208 22.8513 1.75346 21.199C0.654843 19.5467 0.196281 17.5506 0.463668 15.5845C0.731055 13.6184 1.70605 11.8173 3.20602 10.5184C4.70599 9.21953 6.62804 8.51207 8.61216 8.52852C10.5963 8.54496 12.5063 9.2842 13.9846 10.6078C15.4628 11.9313 16.4078 13.7484 16.6425 15.7186L16.6583 15.8509H16.7915L24.5265 15.8509L24.5273 15.8509C24.8923 15.8491 25.2503 15.9521 25.5585 16.1477C25.8668 16.3432 26.1125 16.6231 26.2664 16.9541L26.2665 16.9544L35.142 35.9614L35.1824 36.048H35.2779H40.2363ZM6.17511 20.3275C6.8939 20.797 7.73603 21.0424 8.59453 21.0324C9.16089 21.0323 9.72162 20.9199 10.2442 20.7016C10.7671 20.4832 11.2415 20.1632 11.6398 19.7601C12.0381 19.357 12.3524 18.8789 12.5645 18.3534C12.7766 17.8283 12.8823 17.2662 12.8756 16.6999C12.8754 15.8414 12.62 15.0022 12.1419 14.2891C11.6636 13.5757 10.9841 13.0206 10.1896 12.6943C9.39511 12.368 8.52156 12.2853 7.67995 12.4566C6.83834 12.628 6.06666 13.0456 5.46298 13.6566C4.85929 14.2675 4.45085 15.0441 4.28957 15.8877C4.12828 16.7313 4.22142 17.6038 4.55715 18.3943C4.89289 19.1849 5.45606 19.8577 6.17511 20.3275Z" fill="#060821" stroke="white" stroke-width="0.3"/>
<path d="M24.6214 52.207L24.6503 52.3197H24.7667H38.4104C38.9186 52.3197 39.4059 52.5215 39.7652 52.8809C40.1246 53.2402 40.3264 53.7275 40.3264 54.2357C40.3264 54.7438 40.1246 55.2312 39.7652 55.5905C39.4059 55.9498 38.9186 56.1517 38.4104 56.1517H24.7667H24.6503L24.6214 56.2644C24.1273 58.1901 22.9476 59.8693 21.3035 60.9869C19.6593 62.1046 17.6639 62.5839 15.6915 62.3349C13.7191 62.0859 11.9054 61.1258 10.5906 59.6346C9.27584 58.1434 8.55039 56.2237 8.55039 54.2357C8.55039 52.2476 9.27584 50.3279 10.5906 48.8367C11.9054 47.3456 13.7191 46.3854 15.6915 46.1364C17.6639 45.8874 19.6593 46.3667 21.3035 47.4844C22.9476 48.6021 24.1273 50.2813 24.6214 52.207ZM14.3651 57.8623C15.0839 58.3319 15.9261 58.5772 16.7846 58.5672C17.3509 58.5672 17.9117 58.4547 18.4343 58.2364C18.9572 58.018 19.4315 57.698 19.8298 57.295C20.2281 56.8919 20.5424 56.4138 20.7546 55.8883C20.9666 55.3631 21.0723 54.8011 21.0657 54.2348C21.0654 53.3762 20.81 52.5371 20.3319 51.8239C19.8537 51.1105 19.1741 50.5554 18.3796 50.2291C17.5851 49.9029 16.7116 49.8201 15.87 49.9915C15.0284 50.1628 14.2567 50.5805 13.653 51.1914C13.0493 51.8023 12.6409 52.5789 12.4796 53.4225C12.3183 54.2661 12.4115 55.1386 12.7472 55.9292C13.0829 56.7197 13.6461 57.3926 14.3651 57.8623Z" fill="#060821" stroke="white" stroke-width="0.3"/>
</svg>
