<svg width="63" height="63" viewBox="0 0 63 63" fill="none" xmlns="http://www.w3.org/2000/svg">
<path d="M53.988 0.652222C52.1564 0.662345 50.3801 1.28065 48.9381 2.41C47.4962 3.53934 46.4702 5.11573 46.0215 6.8915H33.3033C32.7554 6.8915 32.2299 7.10917 31.8424 7.49662C31.455 7.88407 31.2373 8.40956 31.2373 8.95749C31.2373 9.50543 31.455 10.0309 31.8424 10.4184C32.2299 10.8058 32.7554 11.0235 33.3033 11.0235H46.0215C46.4152 12.5162 47.2191 13.8689 48.3422 14.9281C49.4653 15.9873 50.8627 16.7108 52.3759 17.0165C53.8891 17.3222 55.4578 17.1979 56.904 16.6577C58.3502 16.1175 59.6161 15.183 60.5584 13.9601C61.5007 12.7372 62.0815 11.2748 62.2352 9.73867C62.3888 8.20253 62.1091 6.65407 61.4277 5.26877C60.7464 3.88347 59.6906 2.71674 58.38 1.90079C57.0695 1.08484 55.5565 0.652313 54.0127 0.652222H53.988ZM53.988 13.139C53.1589 13.1489 52.3456 12.912 51.6515 12.4586C50.9573 12.0051 50.4136 11.3555 50.0895 10.5924C49.7654 9.8292 49.6755 8.98691 49.8312 8.17253C49.9869 7.35815 50.3812 6.60844 50.964 6.01866C51.5468 5.42889 52.2917 5.02568 53.1042 4.86028C53.9166 4.69487 54.76 4.77474 55.5269 5.08972C56.2939 5.4047 56.9499 5.94058 57.4116 6.62927C57.8733 7.31796 58.1199 8.12836 58.1199 8.95749C58.1265 9.50427 58.0245 10.0469 57.8197 10.554C57.615 11.061 57.3117 11.5224 56.9274 11.9113C56.543 12.3003 56.0853 12.6091 55.5807 12.8198C55.0762 13.0306 54.5348 13.1391 53.988 13.139Z" fill="white"/>
<path d="M48.4093 28.7745C46.4172 28.7773 44.4932 29.4997 42.9914 30.8086C41.4896 32.1175 40.5112 33.9249 40.2363 35.898H35.2779L26.4025 16.8909C26.2364 16.5338 25.9714 16.2319 25.6389 16.021C25.3064 15.8101 24.9203 15.699 24.5265 15.7009H16.7915C16.5524 13.6944 15.59 11.8439 14.0846 10.496C12.5792 9.1481 10.634 8.39527 8.6134 8.37852C6.59279 8.36177 4.63539 9.08225 3.10783 10.405C1.58027 11.7278 0.587341 13.562 0.315036 15.5643C0.0427314 17.5665 0.509728 19.5994 1.62855 21.282C2.74738 22.9647 4.44128 24.1818 6.39297 24.7052C8.34466 25.2287 10.4202 25.0227 12.231 24.1258C14.0417 23.2289 15.4633 21.7026 16.2295 19.8329H23.1712L32.055 38.8399C32.2204 39.1957 32.4842 39.4968 32.8151 39.7076C33.146 39.9185 33.5303 40.0303 33.9226 40.03H40.6991C41.2435 41.432 42.1603 42.6588 43.3506 43.5783C44.5408 44.4978 45.9594 45.0749 47.4535 45.2477C48.9476 45.4204 50.4605 45.1821 51.8291 44.5585C53.1978 43.9348 54.3703 42.9495 55.2203 41.7087C56.0703 40.4679 56.5655 39.0186 56.6526 37.5171C56.7398 36.0156 56.4155 34.5188 55.7147 33.188C55.0139 31.8572 53.9632 30.7429 52.6759 29.9651C51.3886 29.1874 49.9134 28.7757 48.4093 28.7745ZM8.59364 20.8824C7.76457 20.8922 6.95129 20.6554 6.25714 20.2019C5.563 19.7484 5.01933 19.0989 4.69522 18.3357C4.37111 17.5725 4.28119 16.7302 4.4369 15.9159C4.5926 15.1015 4.98689 14.3518 5.56967 13.762C6.15245 13.1722 6.8974 12.769 7.70987 12.6036C8.52234 12.4382 9.36564 12.5181 10.1326 12.8331C10.8996 13.148 11.5556 13.6839 12.0173 14.3726C12.479 15.0613 12.7256 15.8717 12.7256 16.7008C12.7322 17.2476 12.6301 17.7902 12.4254 18.2973C12.2207 18.8043 11.9174 19.2657 11.5331 19.6547C11.1487 20.0436 10.691 20.3524 10.1864 20.5632C9.68185 20.7739 9.14046 20.8824 8.59364 20.8824ZM48.4093 41.2365C47.5822 41.2447 46.7713 41.0069 46.0796 40.5533C45.3879 40.0998 44.8466 39.4509 44.5244 38.6891C44.2022 37.9273 44.1136 37.0869 44.2699 36.2746C44.4263 35.4624 44.8205 34.7149 45.4024 34.1272C45.9844 33.5394 46.7279 33.1378 47.5385 32.9734C48.3492 32.809 49.1904 32.8892 49.9554 33.2038C50.7204 33.5184 51.3746 34.0532 51.835 34.7404C52.2954 35.4276 52.5413 36.236 52.5413 37.0632C52.5468 37.6093 52.4439 38.151 52.2387 38.6571C52.0335 39.1632 51.73 39.6236 51.3458 40.0117C50.9616 40.3998 50.5042 40.7078 50.0002 40.9181C49.4962 41.1283 48.9555 41.2365 48.4093 41.2365Z" fill="white"/>
<path d="M38.4104 52.1697H24.7667C24.2635 50.2086 23.0621 48.4986 21.3878 47.3604C19.7135 46.2222 17.6814 45.734 15.6727 45.9876C13.6641 46.2412 11.817 47.219 10.4781 48.7375C9.13917 50.2561 8.40039 52.2111 8.40039 54.2357C8.40039 56.2602 9.13917 58.2152 10.4781 59.7338C11.817 61.2524 13.6641 62.2302 15.6727 62.4837C17.6814 62.7373 19.7135 62.2492 21.3878 61.111C23.0621 59.9728 24.2635 58.2627 24.7667 56.3017H38.4104C38.9584 56.3017 39.4839 56.084 39.8713 55.6965C40.2588 55.3091 40.4764 54.7836 40.4764 54.2357C40.4764 53.6877 40.2588 53.1622 39.8713 52.7748C39.4839 52.3874 38.9584 52.1697 38.4104 52.1697ZM16.7837 58.4172C15.9546 58.4271 15.1413 58.1902 14.4472 57.7367C13.753 57.2833 13.2094 56.6337 12.8853 55.8705C12.5611 55.1074 12.4712 54.2651 12.6269 53.4507C12.7826 52.6363 13.1769 51.8866 13.7597 51.2968C14.3425 50.7071 15.0874 50.3039 15.8999 50.1385C16.7124 49.9731 17.5557 50.0529 18.3226 50.3679C19.0896 50.6829 19.7456 51.2188 20.2073 51.9075C20.6691 52.5961 20.9156 53.4065 20.9157 54.2357C20.9222 54.7825 20.8202 55.3251 20.6155 55.8321C20.4108 56.3392 20.1074 56.8006 19.7231 57.1895C19.3388 57.5785 18.881 57.8873 18.3765 58.098C17.8719 58.3088 17.3305 58.4173 16.7837 58.4172Z" fill="white"/>
</svg>
