<svg width="80" height="81" viewBox="0 0 80 81" fill="none" xmlns="http://www.w3.org/2000/svg">
<path d="M40.0089 20.0354C28.6581 20.0354 19.5025 29.193 19.5025 40.5464C19.5025 51.8997 28.6581 61.0574 40.0089 61.0574C51.3597 61.0574 60.5153 51.8997 60.5153 40.5464C60.5153 29.193 51.3597 20.0354 40.0089 20.0354ZM40.0089 53.8812C32.6737 53.8812 26.6771 47.9011 26.6771 40.5464C26.6771 33.1917 32.6559 27.2116 40.0089 27.2116C47.362 27.2116 53.3408 33.1917 53.3408 40.5464C53.3408 47.9011 47.3441 53.8812 40.0089 53.8812V53.8812ZM66.1372 19.1964C66.1372 21.8562 63.9955 23.9805 61.3542 23.9805C58.6949 23.9805 56.5711 21.8384 56.5711 19.1964C56.5711 16.5544 58.7128 14.4123 61.3542 14.4123C63.9955 14.4123 66.1372 16.5544 66.1372 19.1964ZM79.7189 24.0519C79.4155 17.6433 77.952 11.9667 73.2582 7.28966C68.5823 2.61266 62.9069 1.14886 56.4997 0.827543C49.8963 0.452668 30.1037 0.452668 23.5003 0.827543C17.111 1.13101 11.4356 2.59481 6.74177 7.27181C2.04796 11.9488 0.602342 17.6255 0.281093 24.0341C-0.0936977 30.639 -0.0936977 50.4359 0.281093 57.0409C0.584495 63.4494 2.04796 69.1261 6.74177 73.8031C11.4356 78.4801 17.0931 79.9439 23.5003 80.2652C30.1037 80.6401 49.8963 80.6401 56.4997 80.2652C62.9069 79.9618 68.5823 78.498 73.2582 73.8031C77.9342 69.1261 79.3977 63.4494 79.7189 57.0409C80.0937 50.4359 80.0937 30.6568 79.7189 24.0519V24.0519ZM71.188 64.1278C69.7959 67.6266 67.101 70.3221 63.5851 71.7324C58.3201 73.821 45.8271 73.339 40.0089 73.339C34.1907 73.339 21.6799 73.8031 16.4328 71.7324C12.9347 70.34 10.2398 67.6445 8.82989 64.1278C6.74177 58.8617 7.22365 46.3659 7.22365 40.5464C7.22365 34.7269 6.75962 22.2132 8.82989 16.965C10.222 13.4662 12.9169 10.7706 16.4328 9.3604C21.6977 7.27181 34.1907 7.75379 40.0089 7.75379C45.8271 7.75379 58.338 7.28966 63.5851 9.3604C67.0831 10.7528 69.778 13.4483 71.188 16.965C73.2761 22.2311 72.7942 34.7269 72.7942 40.5464C72.7942 46.3659 73.2761 58.8795 71.188 64.1278Z" fill="white"/>
</svg>
