<svg width="80" height="81" viewBox="0 0 80 81" fill="none" xmlns="http://www.w3.org/2000/svg">
<path d="M74.2857 0.546387H5.69643C2.55357 0.546387 0 3.13567 0 6.31424V74.7785C0 77.9571 2.55357 80.5464 5.69643 80.5464H74.2857C77.4286 80.5464 80 77.9571 80 74.7785V6.31424C80 3.13567 77.4286 0.546387 74.2857 0.546387ZM24.1786 69.1178H12.3214V30.9392H24.1964V69.1178H24.1786ZM18.25 25.725C14.4464 25.725 11.375 22.6357 11.375 18.85C11.375 15.0642 14.4464 11.975 18.25 11.975C22.0357 11.975 25.125 15.0642 25.125 18.85C25.125 22.6535 22.0536 25.725 18.25 25.725ZM68.625 69.1178H56.7679V50.5464C56.7679 46.1178 56.6786 40.4214 50.6071 40.4214C44.4286 40.4214 43.4821 45.2428 43.4821 50.225V69.1178H31.625V30.9392H43V36.1535H43.1607C44.75 33.1535 48.625 29.9928 54.3929 29.9928C66.3929 29.9928 68.625 37.9035 68.625 48.1892V69.1178Z" fill="white"/>
</svg>
