<svg width="301" height="57" viewBox="0 0 301 57" fill="none" xmlns="http://www.w3.org/2000/svg">
<path d="M42.29 43.3837H23.0632C22.3542 40.8111 20.6612 38.5678 18.3018 37.0746C15.9423 35.5815 13.0787 34.9412 10.2481 35.2738C7.4176 35.6064 4.81473 36.8891 2.92791 38.8813C1.04108 40.8734 0 43.438 0 46.0939C0 48.7498 1.04108 51.3145 2.92791 53.3066C4.81473 55.2987 7.4176 56.5815 10.2481 56.9141C13.0787 57.2467 15.9423 56.6064 18.3018 55.1132C20.6612 53.6201 22.3542 51.3768 23.0632 48.8042H42.29C43.0621 48.8042 43.8026 48.5186 44.3486 48.0104C44.8946 47.5021 45.2013 46.8127 45.2013 46.0939C45.2013 45.3751 44.8946 44.6858 44.3486 44.1775C43.8026 43.6692 43.0621 43.3837 42.29 43.3837ZM11.8137 51.5795C10.6454 51.5924 9.49928 51.2817 8.5211 50.6868C7.54291 50.0919 6.77678 49.2398 6.32004 48.2386C5.86331 47.2375 5.7366 46.1325 5.95602 45.0642C6.17543 43.9959 6.73107 43.0124 7.55232 42.2387C8.37356 41.465 9.42335 40.936 10.5683 40.719C11.7132 40.5021 12.9016 40.6068 13.9824 41.02C15.0632 41.4332 15.9877 42.1362 16.6383 43.0397C17.2889 43.9431 17.6363 45.0063 17.6364 46.0939C17.6457 46.8112 17.5019 47.5231 17.2134 48.1883C16.9249 48.8534 16.4975 49.4587 15.9559 49.9689C15.4143 50.4792 14.7693 50.8843 14.0582 51.1607C13.3472 51.4372 12.5842 51.5795 11.8137 51.5795Z" fill="white"/>
<path d="M289.32 9.4635C286.739 9.47678 284.236 10.2879 282.204 11.7694C280.172 13.2509 278.726 15.3189 278.094 17.6484H260.171C259.399 17.6484 258.659 17.934 258.113 18.4423C257.567 18.9505 257.26 19.6399 257.26 20.3587C257.26 21.0775 257.567 21.7669 258.113 22.2751C258.659 22.7834 259.399 23.0689 260.171 23.0689H278.094C278.649 25.0272 279.781 26.8017 281.364 28.1912C282.947 29.5807 284.916 30.5298 287.048 30.9308C289.181 31.3318 291.391 31.1688 293.429 30.4601C295.467 29.7515 297.251 28.5255 298.579 26.9213C299.907 25.3171 300.725 23.3986 300.942 21.3835C301.159 19.3683 300.764 17.337 299.804 15.5197C298.844 13.7024 297.356 12.1718 295.509 11.1014C293.663 10.031 291.531 9.46362 289.355 9.4635H289.32ZM289.32 25.8442C288.152 25.8571 287.006 25.5464 286.027 24.9515C285.049 24.3567 284.283 23.5045 283.826 22.5034C283.37 21.5022 283.243 20.3973 283.462 19.3289C283.682 18.2606 284.237 17.2771 285.059 16.5034C285.88 15.7297 286.93 15.2008 288.075 14.9838C289.22 14.7668 290.408 14.8716 291.489 15.2848C292.57 15.698 293.494 16.401 294.145 17.3044C294.795 18.2079 295.143 19.271 295.143 20.3587C295.152 21.076 295.008 21.7878 294.72 22.453C294.431 23.1182 294.004 23.7234 293.462 24.2337C292.921 24.7439 292.276 25.149 291.565 25.4255C290.854 25.7019 290.091 25.8443 289.32 25.8442Z" fill="white"/>
<path d="M267.243 34.3826C264.436 34.3864 261.724 35.334 259.608 37.0511C257.492 38.7682 256.113 41.1392 255.726 43.7276H61.2259L48.7186 18.7933C48.4846 18.3249 48.1112 17.9288 47.6426 17.6521C47.174 17.3754 46.63 17.2297 46.0751 17.2322H35.1749C34.838 14.6 33.4818 12.1725 31.3604 10.4042C29.239 8.636 26.4978 7.6484 23.6504 7.62643C20.803 7.60445 18.0446 8.5496 15.892 10.2848C13.7394 12.0201 12.3401 14.4264 11.9564 17.053C11.5727 19.6796 12.2308 22.3464 13.8074 24.5538C15.384 26.7612 17.7711 28.3578 20.5214 29.0445C23.2717 29.7312 26.1966 29.461 28.7482 28.2844C31.2999 27.1078 33.3032 25.1055 34.383 22.6527H44.1652L56.6841 47.587C56.9173 48.0537 57.2889 48.4486 57.7553 48.7252C58.2216 49.0018 58.7631 49.1485 59.316 49.1481H256.378C257.145 50.9873 258.437 52.5967 260.114 53.8029C261.791 55.0091 263.791 55.7663 265.896 55.9929C268.001 56.2195 270.133 55.9069 272.062 55.0888C273.991 54.2706 275.643 52.9781 276.841 51.3503C278.039 49.7225 278.737 47.8213 278.859 45.8516C278.982 43.8819 278.525 41.9183 277.538 40.1725C276.55 38.4267 275.069 36.9649 273.255 35.9446C271.441 34.9243 269.362 34.3843 267.243 34.3826ZM23.6226 24.0295C22.4542 24.0424 21.3082 23.7317 20.33 23.1368C19.3518 22.5419 18.5857 21.6898 18.1289 20.6887C17.6722 19.6875 17.5455 18.5826 17.7649 17.5142C17.9843 16.4459 18.5399 15.4624 19.3612 14.6887C20.1824 13.915 21.2322 13.3861 22.3771 13.1691C23.5221 12.9521 24.7104 13.0569 25.7913 13.4701C26.8721 13.8833 27.7965 14.5863 28.4472 15.4897C29.0978 16.3932 29.4452 17.4563 29.4453 18.544C29.4546 19.2613 29.3108 19.9731 29.0223 20.6383C28.7338 21.3034 28.3064 21.9087 27.7648 22.4189C27.2232 22.9292 26.5781 23.3343 25.8671 23.6108C25.156 23.8872 24.3931 24.0296 23.6226 24.0295ZM267.243 50.7308C266.077 50.7416 264.935 50.4297 263.96 49.8347C262.985 49.2397 262.222 48.3884 261.768 47.3891C261.314 46.3897 261.189 45.2872 261.41 44.2217C261.63 43.1562 262.185 42.1756 263.006 41.4045C263.826 40.6334 264.873 40.1066 266.016 39.891C267.158 39.6753 268.344 39.7805 269.422 40.1932C270.5 40.6059 271.422 41.3076 272.07 42.209C272.719 43.1105 273.066 44.1711 273.066 45.2562C273.073 45.9725 272.928 46.6832 272.639 47.3471C272.35 48.011 271.922 48.615 271.381 49.1241C270.839 49.6332 270.195 50.0373 269.485 50.3131C268.774 50.5889 268.013 50.7309 267.243 50.7308Z" fill="white"/>
<path d="M82.6824 10.6568L73.9431 37.2642H68.6179L59.9158 10.6568H65.9646L71.2712 28.4136L76.5964 10.6568H82.6824ZM83.6843 18.6353C83.6843 17.5344 83.8946 16.5015 84.3152 15.5367C84.7358 14.5718 85.3048 13.7307 86.0222 13.0132C86.752 12.2834 87.5994 11.7082 88.5642 11.2877C89.5291 10.8671 90.5619 10.6568 91.6628 10.6568H103.872V15.982H91.6628C91.2917 15.982 90.9454 16.05 90.6238 16.1861C90.3022 16.3222 90.0177 16.5139 89.7703 16.7613C89.5352 16.9963 89.3497 17.2746 89.2136 17.5963C89.0776 17.9179 89.0095 18.2642 89.0095 18.6353C89.0095 19.0064 89.0776 19.3589 89.2136 19.6929C89.3497 20.0145 89.5352 20.2991 89.7703 20.5464C90.0177 20.7815 90.3022 20.967 90.6238 21.1031C90.9454 21.2392 91.2917 21.3072 91.6628 21.3072H96.988C98.0889 21.3072 99.1218 21.5175 100.087 21.938C101.064 22.3463 101.911 22.9153 102.629 23.6451C103.358 24.3625 103.927 25.2099 104.336 26.1871C104.756 27.1519 104.967 28.1848 104.967 29.2857C104.967 30.3866 104.756 31.4195 104.336 32.3843C103.927 33.3492 103.358 34.1965 102.629 34.9263C101.911 35.6438 101.064 36.2128 100.087 36.6334C99.1218 37.0539 98.0889 37.2642 96.988 37.2642H85.1687V31.939H96.988C97.3591 31.939 97.7055 31.871 98.0271 31.7349C98.3487 31.5989 98.627 31.4133 98.8621 31.1783C99.1095 30.9309 99.3012 30.6464 99.4373 30.3248C99.5733 30.0032 99.6414 29.6568 99.6414 29.2857C99.6414 28.9146 99.5733 28.5683 99.4373 28.2466C99.3012 27.925 99.1095 27.6467 98.8621 27.4117C98.627 27.1643 98.3487 26.9726 98.0271 26.8365C97.7055 26.7004 97.3591 26.6324 96.988 26.6324H91.6628C90.5619 26.6324 89.5291 26.4221 88.5642 26.0015C87.5994 25.581 86.752 25.0119 86.0222 24.2945C85.3048 23.5647 84.7358 22.7173 84.3152 21.7525C83.8946 20.7753 83.6843 19.7362 83.6843 18.6353ZM129.719 34.5367C128.482 35.6005 127.096 36.4169 125.562 36.9859C124.028 37.5549 122.439 37.8394 120.794 37.8394C119.532 37.8394 118.314 37.6724 117.138 37.3384C115.976 37.0168 114.881 36.5591 113.854 35.9654C112.84 35.3593 111.912 34.6356 111.071 33.7945C110.23 32.9533 109.506 32.0256 108.9 31.0113C108.306 29.9846 107.843 28.8899 107.509 27.7271C107.187 26.552 107.026 25.3336 107.026 24.0718C107.026 22.8101 107.187 21.5917 107.509 20.4166C107.843 19.2414 108.306 18.1467 108.9 17.1324C109.506 16.1057 110.23 15.1718 111.071 14.3306C111.912 13.4895 112.84 12.772 113.854 12.1783C114.881 11.5722 115.976 11.1083 117.138 10.7867C118.314 10.4527 119.532 10.2857 120.794 10.2857C122.439 10.2857 124.028 10.5702 125.562 11.1392C127.096 11.6959 128.482 12.5123 129.719 13.5884L126.898 18.2271C126.119 17.386 125.197 16.7427 124.134 16.2974C123.07 15.8397 121.956 15.6109 120.794 15.6109C119.619 15.6109 118.518 15.8336 117.491 16.2789C116.464 16.7242 115.567 17.3303 114.801 18.0972C114.034 18.8518 113.427 19.7486 112.982 20.7877C112.537 21.8144 112.314 22.9091 112.314 24.0718C112.314 25.2346 112.537 26.3293 112.982 27.356C113.427 28.3703 114.034 29.261 114.801 30.0279C115.567 30.7948 116.464 31.4009 117.491 31.8463C118.518 32.2916 119.619 32.5142 120.794 32.5142C121.956 32.5142 123.07 32.2916 124.134 31.8463C125.197 31.3886 126.119 30.7392 126.898 29.898L129.719 34.5367ZM150.778 27.1519C150.778 28.6363 150.512 30.0217 149.98 31.3082C149.448 32.5823 148.725 33.6894 147.809 34.6295C146.894 35.5572 145.818 36.2932 144.581 36.8375C143.356 37.3694 142.039 37.6353 140.629 37.6353C139.231 37.6353 137.913 37.3694 136.677 36.8375C135.452 36.2932 134.376 35.5572 133.448 34.6295C132.533 33.6894 131.809 32.5823 131.277 31.3082C130.745 30.0217 130.479 28.6363 130.479 27.1519C130.479 25.6428 130.745 24.245 131.277 22.9586C131.809 21.6721 132.533 20.565 133.448 19.6373C134.376 18.6972 135.452 17.9612 136.677 17.4293C137.913 16.8974 139.231 16.6314 140.629 16.6314C142.039 16.6314 143.356 16.885 144.581 17.3922C145.818 17.8869 146.894 18.5982 147.809 19.5259C148.725 20.4413 149.448 21.5484 149.98 22.8472C150.512 24.1337 150.778 25.5686 150.778 27.1519ZM145.676 27.1519C145.676 26.3355 145.539 25.5995 145.267 24.9439C145.008 24.2759 144.649 23.7069 144.191 23.2369C143.733 22.7545 143.195 22.3895 142.577 22.1422C141.971 21.8824 141.321 21.7525 140.629 21.7525C139.936 21.7525 139.28 21.8824 138.662 22.1422C138.056 22.3895 137.524 22.7545 137.066 23.2369C136.621 23.7069 136.268 24.2759 136.009 24.9439C135.749 25.5995 135.619 26.3355 135.619 27.1519C135.619 27.9188 135.749 28.6301 136.009 29.2857C136.268 29.9413 136.621 30.5103 137.066 30.9927C137.524 31.4752 138.056 31.8586 138.662 32.1431C139.28 32.4153 139.936 32.5513 140.629 32.5513C141.321 32.5513 141.971 32.4214 142.577 32.1617C143.195 31.9019 143.733 31.537 144.191 31.067C144.649 30.5969 145.008 30.0279 145.267 29.3599C145.539 28.692 145.676 27.956 145.676 27.1519ZM158.645 37.2642H153.58V17.3922H154.804L156.474 19.3218C157.291 18.5797 158.212 18.0106 159.239 17.6148C160.278 17.2066 161.36 17.0025 162.486 17.0025C163.698 17.0025 164.843 17.2375 165.919 17.7076C166.995 18.1653 167.935 18.8023 168.739 19.6187C169.543 20.4227 170.174 21.369 170.632 22.4576C171.102 23.5338 171.337 24.6841 171.337 25.9088V37.2642H166.271V25.9088C166.271 25.3892 166.172 24.9006 165.974 24.4429C165.776 23.9729 165.504 23.5647 165.158 23.2183C164.812 22.872 164.41 22.5998 163.952 22.4019C163.494 22.204 163.006 22.105 162.486 22.105C161.954 22.105 161.453 22.204 160.983 22.4019C160.513 22.5998 160.105 22.872 159.759 23.2183C159.412 23.5647 159.14 23.9729 158.942 24.4429C158.744 24.9006 158.645 25.3892 158.645 25.9088V37.2642ZM180.02 37.2642H174.955V17.3922H176.179L177.849 19.3218C178.666 18.5797 179.587 18.0106 180.614 17.6148C181.653 17.2066 182.735 17.0025 183.861 17.0025C185.073 17.0025 186.218 17.2375 187.294 17.7076C188.37 18.1653 189.31 18.8023 190.114 19.6187C190.918 20.4227 191.549 21.369 192.007 22.4576C192.477 23.5338 192.712 24.6841 192.712 25.9088V37.2642H187.646V25.9088C187.646 25.3892 187.547 24.9006 187.349 24.4429C187.151 23.9729 186.879 23.5647 186.533 23.2183C186.187 22.872 185.785 22.5998 185.327 22.4019C184.869 22.204 184.381 22.105 183.861 22.105C183.329 22.105 182.828 22.204 182.358 22.4019C181.888 22.5998 181.48 22.872 181.134 23.2183C180.787 23.5647 180.515 23.9729 180.317 24.4429C180.119 24.9006 180.02 25.3892 180.02 25.9088V37.2642ZM204.234 32.4029C204.432 32.4647 204.63 32.508 204.828 32.5328C205.026 32.5451 205.224 32.5513 205.422 32.5513C205.916 32.5513 206.393 32.4833 206.85 32.3472C207.308 32.2112 207.735 32.0194 208.131 31.772C208.539 31.5123 208.898 31.203 209.207 30.8443C209.528 30.4732 209.788 30.065 209.986 29.6197L213.697 33.3492C213.227 34.0172 212.683 34.6171 212.064 35.149C211.458 35.6809 210.796 36.1324 210.079 36.5035C209.374 36.8746 208.625 37.1529 207.834 37.3384C207.054 37.5364 206.25 37.6353 205.422 37.6353C204.024 37.6353 202.706 37.3755 201.469 36.856C200.245 36.3365 199.169 35.6129 198.241 34.6851C197.326 33.7574 196.602 32.6565 196.07 31.3824C195.538 30.0959 195.272 28.6858 195.272 27.1519C195.272 25.581 195.538 24.1461 196.07 22.8472C196.602 21.5484 197.326 20.4413 198.241 19.5259C199.169 18.6106 200.245 17.8993 201.469 17.3922C202.706 16.885 204.024 16.6314 205.422 16.6314C206.25 16.6314 207.061 16.7304 207.852 16.9283C208.644 17.1262 209.392 17.4107 210.097 17.7818C210.815 18.1529 211.483 18.6106 212.101 19.1548C212.72 19.6867 213.264 20.2867 213.734 20.9547L204.234 32.4029ZM206.832 21.9566C206.597 21.87 206.362 21.8144 206.127 21.7896C205.904 21.7649 205.669 21.7525 205.422 21.7525C204.729 21.7525 204.073 21.8824 203.455 22.1422C202.849 22.3895 202.317 22.7483 201.859 23.2183C201.414 23.6884 201.061 24.2574 200.802 24.9254C200.542 25.581 200.412 26.3231 200.412 27.1519C200.412 27.3375 200.418 27.5477 200.43 27.7828C200.455 28.0178 200.486 28.259 200.523 28.5064C200.573 28.7414 200.628 28.9703 200.69 29.1929C200.752 29.4156 200.832 29.6135 200.931 29.7867L206.832 21.9566ZM233.513 21.3443L229.802 25.0738C229.617 24.5543 229.363 24.0904 229.042 23.6822C228.72 23.2616 228.355 22.9091 227.947 22.6246C227.551 22.3401 227.118 22.1236 226.648 21.9752C226.178 21.8267 225.696 21.7525 225.201 21.7525C224.508 21.7525 223.853 21.8948 223.234 22.1793C222.628 22.4638 222.096 22.8658 221.638 23.3853C221.193 23.8925 220.841 24.4986 220.581 25.2037C220.321 25.9088 220.191 26.688 220.191 27.5416C220.191 28.2343 220.321 28.8837 220.581 29.4898C220.841 30.0959 221.193 30.6278 221.638 31.0855C222.096 31.5432 222.628 31.9019 223.234 32.1617C223.853 32.4214 224.508 32.5513 225.201 32.5513C225.696 32.5513 226.172 32.4833 226.63 32.3472C227.087 32.2112 227.514 32.0194 227.91 31.772C228.318 31.5123 228.677 31.203 228.986 30.8443C229.308 30.4732 229.567 30.065 229.765 29.6197L233.476 33.3492C233.006 34.0172 232.462 34.6171 231.844 35.149C231.237 35.6809 230.576 36.1324 229.858 36.5035C229.153 36.8746 228.405 37.1529 227.613 37.3384C226.834 37.5364 226.03 37.6353 225.201 37.6353C223.803 37.6353 222.486 37.3755 221.249 36.856C220.024 36.3241 218.948 35.6005 218.02 34.6851C217.105 33.7698 216.381 32.6998 215.849 31.4752C215.317 30.2505 215.052 28.9394 215.052 27.5416C215.052 26.0201 215.317 24.5976 215.849 23.274C216.381 21.9504 217.105 20.8 218.02 19.8228C218.948 18.8332 220.024 18.0539 221.249 17.4849C222.486 16.9159 223.803 16.6314 225.201 16.6314C226.03 16.6314 226.84 16.7366 227.632 16.9468C228.436 17.1571 229.196 17.4664 229.914 17.8746C230.644 18.2704 231.312 18.759 231.918 19.3404C232.536 19.9218 233.068 20.5897 233.513 21.3443ZM245.964 37.2642C244.739 37.2642 243.589 37.0354 242.512 36.5777C241.436 36.1076 240.49 35.4706 239.674 34.6666C238.87 33.8502 238.233 32.9039 237.762 31.8277C237.305 30.7515 237.076 29.6011 237.076 28.3765V22.4761H234.608V17.4293H237.076V9.48785H242.123V17.4293H249.804V22.4761H242.123V28.3765C242.123 28.9084 242.222 29.4094 242.42 29.8795C242.618 30.3371 242.89 30.7392 243.236 31.0855C243.582 31.4319 243.991 31.7102 244.461 31.9205C244.931 32.1184 245.432 32.2173 245.964 32.2173H249.804V37.2642H245.964Z" fill="white"/>
</svg>
